<?xml version="1.0" encoding="iso-8859-1"?>
<!-- Generator: Adobe Illustrator 19.0.0, SVG Export Plug-In . SVG Version: 6.00 Build 0)  -->
<svg version="1.1" id="Capa_1" xmlns="http://www.w3.org/2000/svg" xmlns:xlink="http://www.w3.org/1999/xlink" x="0px" y="0px"
	 viewBox="0 0 418.089 418.089" style="enable-background:new 0 0 418.089 418.089;" xml:space="preserve">
<path id="XMLID_451_" d="M82.92,44.614c0-3.866-3.134-7-7-7H37.073c-3.866,0-7,3.134-7,7V74.22c0,3.866,3.134,7,7,7H75.92
	c3.866,0,7-3.134,7-7V44.614z M68.92,67.22H44.073V51.614H68.92V67.22z M82.92,124.924c0-13.636-11.093-24.729-24.729-24.729h-3.389
	c-13.636,0-24.729,11.093-24.729,24.729v28.453c0,13.635,11.093,24.729,24.729,24.729h3.389c13.635,0,24.729-11.093,24.729-24.729
	V124.924z M68.92,153.376c0,5.916-4.813,10.729-10.729,10.729h-3.389c-5.916,0-10.729-4.813-10.729-10.729v-28.453
	c0-5.916,4.813-10.729,10.729-10.729h3.389c5.916,0,10.729,4.813,10.729,10.729V153.376z M291.969,198.529v-26.355
	c0-3.866,3.134-7,7-7s7,3.134,7,7v26.355c0,3.866-3.134,7-7,7S291.969,202.395,291.969,198.529z M365.348,226.688V51.614H115.022
	v175.074H244.8c3.866,0,7,3.134,7,7s-3.134,7-7,7H108.022c-3.866,0-7-3.134-7-7V44.614c0-3.866,3.134-7,7-7h264.326
	c3.866,0,7,3.134,7,7v189.074c0,3.866-3.134,7-7,7h-19.211c-3.866,0-7-3.134-7-7s3.134-7,7-7H365.348z M411.089,0H7
	C3.134,0,0,3.134,0,7v264.301c0,3.866,3.134,7,7,7h22.389v12.383c0,14.547,11.835,26.382,26.383,26.382h133.891
	c6.827,0,12.382,5.555,12.382,12.384c0,6.828-5.555,12.382-12.382,12.382H54.905c-14.308,0-25.516,11.588-25.516,26.381
	l-2.061,0.049c-8.904,0-16.148,7.244-16.148,16.147v26.678c0,3.866,3.134,7,7,7h35.826c3.866,0,7-3.134,7-7v-26.678
	c0-8.904-7.244-16.147-16.148-16.147h-1.468v-0.049c0-7.059,4.951-12.381,11.516-12.381h134.758
	c14.547,0,26.382-11.836,26.382-26.384c0-14.547-11.835-26.382-26.382-26.382H55.772c-6.828,0-12.383-5.554-12.383-12.382v-12.383
	H244.8c3.866,0,7-3.134,7-7s-3.134-7-7-7H14V14h390.088v250.301h-50.951c-3.866,0-7,3.134-7,7s3.134,7,7,7h57.951
	c3.866,0,7-3.134,7-7V7C418.089,3.134,414.955,0,411.089,0z M44.857,382.263c1.165,0,2.148,0.983,2.148,2.147v19.678H25.179v-19.678
	c0-1.164,0.984-2.147,2.148-2.147H44.857z M325.356,132.89l-8.138-20.264c-1.065-2.653-3.638-4.391-6.496-4.391h-4.754v-12.22
	c0-3.866-3.134-7-7-7s-7,3.134-7,7v12.22h-4.754c-2.858,0-5.431,1.738-6.496,4.391l-8.992,22.389
	c-3.032,2.166-5.013,5.714-5.013,9.716v241.793c0,2.646,1.469,4.95,3.635,6.14v18.424c0,3.866,3.134,7,7,7h43.239
	c3.866,0,7-3.134,7-7v-18.424c2.167-1.19,3.636-3.494,3.636-6.14V139.799C331.223,136.318,328.683,133.432,325.356,132.89z
	 M291.947,122.235h14.043l4.243,10.564h-22.529L291.947,122.235z M313.588,404.089h-29.239v-10.564h29.239V404.089z
	 M317.223,379.525h-36.51V146.799h36.51V379.525z M37.073,197.082c-3.866,0-7,3.134-7,7v29.606c0,3.866,3.134,7,7,7H75.92
	c3.866,0,7-3.134,7-7v-29.606c0-3.866-3.134-7-7-7H37.073z M68.92,226.688H44.073v-15.606H68.92V226.688z"/>
<g>
</g>
<g>
</g>
<g>
</g>
<g>
</g>
<g>
</g>
<g>
</g>
<g>
</g>
<g>
</g>
<g>
</g>
<g>
</g>
<g>
</g>
<g>
</g>
<g>
</g>
<g>
</g>
<g>
</g>
</svg>
